          888    d8P         d8888 8888888b.  d8b 888b    888        d8888 
          888   d8P         d88888 888   Y88b Y8P 8888b   888       d88888 
          888  d8P         d88P888 888    888     88888b  888      d88P888 
          888d88K         d88P 888 888   d88P 888 888Y88b 888     d88P 888 
          8888888b       d88P  888 8888888P"  888 888 Y88b888    d88P  888 
          888  Y88b     d88P   888 888 T88b   888 888  Y88888   d88P   888 
          888   Y88b   d8888888888 888  T88b  888 888   Y8888  d8888888888 
          888    Y88b d88P     888 888   T88b 888 888    Y888 d88P     888 
              
         Dusan.Makavejev.Free.Radical.1965-1968.CRITERION.DVDRip.XviD-KARiNA

Synopsis.

Eclipse 18: Dusan Makavejev, Free Radical | Yugoslavia | 1965-1968 
                                  
There's never been another filmmaker quite like Dusan Makavejev. Even in the 1960s, when all of cinema's rules seemed to be breaking down and artists such as Godard, Cassavetes, and Marker were dissolving the boundary between fiction and documentary, Yugoslavia's Makavejev stood alone. His films about political and sexual liberation were revolutionary, raucous, and ribald. Across these, his wild, collagelike first three films, Makavejev investigates - with a tonic mix of earnestness and whimsy - love, death, and work; the legacy of war and the absurdity of daily life in a Communist state; criminology and hypnosis; strudels and strongmen.   

_________________________________________________

 

Man Is Not A Bird | 1965 

Man Is Not a Bird is an antic, free-form portrait of the love lives of two less-than-heroic men who labor in a copper factory. For this first feature, following years of making documentaries and experimental shorts, Dusan Makavejev and his crew set up shop in Bor, a mining town in the mountains near Yugoslavia’s border with Bulgaria, interviewing the workers in the region and even shooting footage inside the local ore factories. Yet the result is hardly a staid tribute to the working class. Also featuring seductive Milena Dravic, who would go on to star in Makavejev's groundbreaking WR: 
Mysteries of the Organism, Man Is Not a Bird is one of cinema's most assured and daring debuts.

IMdB: http://www.imdb.com/title/tt0059063/ | Rating: 7.2 / 10 (154 votes)

General.
                                                                  
Complete name                    : Man.Is.Not.A.Bird.1965.XviD-KARiNA.avi
Format                           : AVI
File size                        : 700 MiB
Duration                         : 1h 18mn
Overall bit rate                 : 1 241 Kbps
Source                           : Criterion NTSC DVD5
                                       
Video.                               

Format                           : MPEG-4 Visual
Codec ID                         : XVID
Bit rate                         : 1 120 Kbps
Width                            : 608 pixels
Height                           : 368 pixels
Display aspect ratio             : 1.652
Frame rate                       : 23.976 fps
Resolution                       : 8 bits
Colorimetry                      : 4:2:0
Scan type                        : Progressive
Bits/(Pixel*Frame)               : 0.209
Stream size                      : 632 MiB (90%)

Audio.                      

Format                           : MPEG Audio
Codec ID/Hint                    : MP3
Bit rate mode                    : Variable
Bit rate                         : 108 Kbps
Nominal bit rate                 : 160 Kbps
Channel(s)                       : 2 channels
Sampling rate                    : 48.0 KHz
Stream size                      : 60.9 MiB (9%)
Language                         : Northern Sami

Subtitles.

Format                           : SRT
Language                         : English

_________________________________________________

 

Love Affair, or the Case of the Missing Switchboard Operator | 1967

In outline, this is the story of the tragic romance between a young telephonist (Eva Ras) and a middle-aged rodent sanitation specialist (Slobodan Aligrudic) in Belgrade. Yet in Dusan Makavejev's manic hands, this second feature becomes an endlessly surprising, time-shifting exploration of love and freedom. Featuring interludes of interviews with a sexologist and a criminologist, as well as some of the most elegant dramatic filmmaking of the director's career, Love Affair, based on a true incident, further demonstrated Makavejev's adeptness at mixing and matching genres, and his odd, sophisticated humanism.

IMdB: http://www.imdb.com/title/tt0061912/ | Rating: 7.3 / 10 (261 votes)

General.
                                                                  
Complete name                    : Love.Affair.or.the.Case.of.the.Missing.Switchboard.Operator.1967.XviD-KARiNA.avi
Format                           : AVI
File size                        : 700 MiB
Duration                         : 1h 8mn
Overall bit rate                 : 1 425 Kbps
Source                           : Criterion NTSC DVD5
                                       
Video.                         

Format                           : MPEG-4 Visual
Codec ID                         : XVID
Bit rate                         : 1 308 Kbps
Width                            : 640 pixels
Height                           : 384 pixels
Display aspect ratio             : 1.667
Frame rate                       : 23.976 fps
Resolution                       : 8 bits
Colorimetry                      : 4:2:0
Scan type                        : Progressive
Bits/(Pixel*Frame)               : 0.222
Stream size                      : 643 MiB (92%)

Audio.                       

Format                           : MPEG Audio
Codec ID/Hint                    : MP3
Bit rate mode                    : Variable
Bit rate                         : 104 Kbps
Nominal bit rate                 : 160 Kbps
Channel(s)                       : 2 channels
Sampling rate                    : 48.0 KHz
Stream size                      : 51.1 MiB (7%)
Language                         : Northern Sami

Subtitles.

Format                           : SRT
Language                         : English

_________________________________________________

 

Innocence Unprotected | 1968

This utterly unclassifiable film is one of Makavejev's most freewheeling farces, assembled from the lost footage of the first Serbian talkie, a silly melodrama titled Innocence Unprotected, made during the Nazi occupation; contemporary interviews with the megaman who made it and other crew members; and images of the World War II destruction, and subsequent rebuilding, of Belgrade. And at its center is a (real-life) character you won't soon forget: Dragoljub Aleksic, an acrobat, locksmith, and Houdini-style escape artist whom Makavejev uses as the absurd and wondrous basis for a look back at his country's tumultuous recent history.

IMdB: http://www.imdb.com/title/tt0063342/ | Rating: 7.7 / 10 (133 votes)
                                     
General.
                                                                  
Complete name                    : Innocence.Unprotected.1968.XviD-KARiNA.avi
Format                           : AVI
File size                        : 700 MiB
Duration                         : 1h 19mn
Overall bit rate                 : 1 225 Kbps
Source                           : Criterion NTSC DVD5
                                       
Video.                             

Format                           : MPEG-4 Visual
Codec ID                         : XVID
Bit rate                         : 1 106 Kbps
Width                            : 512 pixels
Height                           : 384 pixels
Display aspect ratio             : 4:3
Frame rate                       : 23.976 fps
Resolution                       : 8 bits
Colorimetry                      : 4:2:0
Scan type                        : Progressive
Bits/(Pixel*Frame)               : 0.235
Stream size                      : 632 MiB (90%)

Audio.                      

Format                           : MPEG Audio
Codec ID/Hint                    : MP3
Bit rate mode                    : Variable
Bit rate                         : 107 Kbps
Nominal bit rate                 : 160 Kbps
Channel(s)                       : 2 channels
Sampling rate                    : 48.0 KHz
Stream size                      : 61.1 MiB (9%)
Language                         : Northern Sami

Subtitles.

Format                           : SRT
Language                         : English

KARiNA.